<svg width="32" height="32" viewBox="0 0 32 32" fill="none" xmlns="http://www.w3.org/2000/svg">
<rect width="32" height="32" fill="white"/>
<path d="M12.4932 9.41536L20.8713 16.4705C21.0853 16.6508 20.9578 17 20.678 17H17.5099C17.2811 17 17.1365 17.2457 17.2476 17.4457L19.3478 21.2261C19.4308 21.3754 19.3725 21.5637 19.2198 21.6401L17.7569 22.3715C17.6133 22.4434 17.4385 22.3893 17.3605 22.2489L15.1931 18.3477C15.0964 18.1734 14.8597 18.1403 14.7188 18.2812L12.5121 20.4879C12.3231 20.6769 12 20.543 12 20.2757V9.64483C12 9.38975 12.2981 9.25105 12.4932 9.41536Z" fill="black"/>
</svg>
