<svg width="32" height="32" viewBox="0 0 32 32" fill="none" xmlns="http://www.w3.org/2000/svg">
<rect width="32" height="32" fill="white"/>
<path d="M12.5657 11.4343C12.2533 11.1219 11.7467 11.1219 11.4343 11.4343C11.1219 11.7467 11.1219 12.2533 11.4343 12.5657L12.5657 11.4343ZM22 22.8C22.4418 22.8 22.8 22.4418 22.8 22V14.8C22.8 14.3582 22.4418 14 22 14C21.5582 14 21.2 14.3582 21.2 14.8V21.2H14.8C14.3582 21.2 14 21.5582 14 22C14 22.4418 14.3582 22.8 14.8 22.8H22ZM11.4343 12.5657L21.4343 22.5657L22.5657 21.4343L12.5657 11.4343L11.4343 12.5657Z" fill="black"/>
</svg>
