<svg width="32" height="32" viewBox="0 0 32 32" fill="none" xmlns="http://www.w3.org/2000/svg">
<rect width="32" height="32" fill="white"/>
<path fill-rule="evenodd" clip-rule="evenodd" d="M10 18.8C8.78497 18.8 7.8 19.785 7.8 21C7.8 22.215 8.78497 23.2 10 23.2C11.215 23.2 12.2 22.215 12.2 21C12.2 19.785 11.215 18.8 10 18.8ZM6.2 21C6.2 18.9013 7.90131 17.2 10 17.2C12.0987 17.2 13.8 18.9013 13.8 21C13.8 23.0987 12.0987 24.8 10 24.8C7.90131 24.8 6.2 23.0987 6.2 21Z" fill="black"/>
<path fill-rule="evenodd" clip-rule="evenodd" d="M22 17.8C20.785 17.8 19.8 18.785 19.8 20C19.8 21.215 20.785 22.2 22 22.2C23.215 22.2 24.2 21.215 24.2 20C24.2 18.785 23.215 17.8 22 17.8ZM18.2 20C18.2 17.9013 19.9013 16.2 22 16.2C24.0987 16.2 25.8 17.9013 25.8 20C25.8 22.0987 24.0987 23.8 22 23.8C19.9013 23.8 18.2 22.0987 18.2 20Z" fill="black"/>
<path fill-rule="evenodd" clip-rule="evenodd" d="M14 10.8C13.8895 10.8 13.8 10.8895 13.8 11V21H12.2V11C12.2 10.0059 13.0059 9.2 14 9.2H24C24.9941 9.2 25.8 10.0059 25.8 11V20H24.2V11C24.2 10.8895 24.1105 10.8 24 10.8H14Z" fill="black"/>
<path fill-rule="evenodd" clip-rule="evenodd" d="M25 14.8H13V13.2H25V14.8Z" fill="black"/>
</svg>
